<!--?xml version="1.0" standalone="no"?-->
              <svg id="sw-js-blob-svg" viewBox="0 0 100 100" xmlns="http://www.w3.org/2000/svg" version="1.1">
                    <defs> 
                        <linearGradient id="sw-gradient" x1="0" x2="1" y1="1" y2="0">
                            <stop id="stop1" stop-color="rgba(67.917, 176.52, 245.632, 1)" offset="0%"></stop>
                            <stop id="stop2" stop-color="rgba(111, 199, 255, 1)" offset="100%"></stop>
                        </linearGradient>
                    </defs>
                <path fill="url(#sw-gradient)" d="M24.8,-31.5C31.1,-29.6,34.5,-20.9,36.9,-12.3C39.4,-3.6,40.8,5,37.3,11C33.8,16.9,25.3,20.1,18.3,20.7C11.3,21.3,5.6,19.4,-1.6,21.6C-8.9,23.9,-17.8,30.3,-24.9,29.7C-32.1,29.1,-37.6,21.6,-35.8,14.6C-34,7.6,-25,1.2,-22.1,-7.1C-19.3,-15.4,-22.7,-25.6,-20,-28.8C-17.4,-31.9,-8.7,-28,0.3,-28.4C9.2,-28.8,18.5,-33.5,24.8,-31.5Z" width="100%" height="100%" transform="translate(50 50)" stroke-width="0" style="transition: all 0.3s ease 0s;" stroke="url(#sw-gradient)"></path>
              </svg>